<svg width="20" height="20" viewBox="0 0 20 20" fill="none" xmlns="http://www.w3.org/2000/svg">
<path d="M10.7905 15.9039L10.7889 15.9054C10.3466 16.307 9.66435 16.3068 9.22208 15.8994L9.21968 15.8972L9.12801 15.8139L9.12713 15.8131C6.92916 13.8245 5.15489 12.216 3.93708 10.7064C2.72655 9.20587 2.11802 7.86512 2.16638 6.41775C2.21109 5.15487 2.85928 3.94611 3.89807 3.23884L3.89834 3.23866C5.85637 1.90364 8.29325 2.51426 9.61986 4.067L10 4.51195L10.3802 4.067C11.7078 2.51305 14.1441 1.89656 16.1006 3.23793L16.1019 3.23884C17.1409 3.94619 17.7891 5.15514 17.8336 6.41818L17.8337 6.41857C17.8859 7.86522 17.2779 9.20555 16.066 10.7086C14.851 12.2153 13.0826 13.8221 10.8946 15.81L10.8739 15.8289L10.8721 15.8305L10.7905 15.9039Z" stroke="#F3603F"/>
</svg>
